<?xml version="1.0" encoding="utf-8"?>
<svg xmlns="http://www.w3.org/2000/svg" xmlns:xlink="http://www.w3.org/1999/xlink" version= "1.1" width="2048px" height="1536px" viewBox="0 0 2048 1536">
<g id="layer1">
<g style="fill:rgb(0,0,0); fill-opacity:1.0; stroke-linejoin: miter">
<path d="M967.3223,-137.88193Q1345.6289,-134.06895,1621.3218,132.21948Q1888.3699,406.05472,1893.6985,785.8148Q1890.0283,1165.7773,1625.2725,1440.2651Q1352.94,1708.5631,968.06635,1714.3245Q589.75757,1710.5916,314.00287,1444.3524Q46.895874,1170.5615,41.49707,790.80176Q45.09781,410.83987,309.79407,136.30734Q582.0659,-132.03946,966.9357,-137.88185 M967.27826,-285.6686Q525.3117,-280.3914,206.79791,30.29071Q-99.71658,344.99435,-106.2923,787.985Q-101.810684,1229.1368,210.05124,1549.4043Q522.92456,1854.7363,966.93365,1862.1106Q1408.9229,1857.2427,1727.7405,1546.8092Q2034.5542,1232.3345,2041.4868,789.3424Q2037.362,348.19345,1725.8032,27.696442Q1413.2454,-277.87817,969.24457,-285.6668"/>
</g>
<g style="fill:rgb(0,0,0); fill-opacity:1.0; stroke-linejoin: miter">
<path d="M1421.1381,-19.781342Q1746.8546,172.67407,1852.4675,541.13306Q1946.8203,911.80536,1761.5549,1243.3516Q1568.3953,1570.5737,1201.866,1675.9092Q831.8701,1772.0957,495.6792,1584.6484Q169.92062,1392.2614,64.229614,1023.81396Q-30.19637,653.1507,155.00801,321.56964Q348.1073,-5.6865997,714.6072,-111.09061Q1084.575,-207.34982,1420.8032,-19.974579 M1494.9932,-147.79044Q1109.6003,-364.20346,678.4183,-254.4018Q255.6171,-135.11769,28.427055,245.23557Q-188.26768,629.52515,-78.321075,1062.8158Q39.969147,1483.6779,420.80518,1712.0686Q806.013,1928.8474,1237.3339,1819.4131Q1660.2798,1700.4768,1887.7795,1320.3008Q2104.7817,936.19214,1995.2125,502.85416Q1877.3169,81.93988,1496.6952,-146.8057"/>
</g>
<g style="fill:rgb(0,0,0); fill-opacity:1.0; stroke-linejoin: miter">
<path d="M1755.1038,309.40454Q1940.9548,638.93414,1848.1887,1010.83545Q1744.5645,1379.0234,1418.3469,1573.5182Q1087.4546,1760.321,717.3632,1668.2795Q348.84406,1566.5817,151.41791,1236.1521Q-34.503693,906.6605,58.188797,534.73035Q161.74518,166.51347,487.92743,-28.041882Q818.7844,-214.90448,1188.8846,-122.93704Q1557.4158,-21.31607,1754.9104,309.06976 M1883.0686,235.47302Q1657.5151,-144.64261,1229.1997,-265.14264Q803.4011,-373.24017,416.47214,-157.43962Q36.66424,67.01746,-84.76467,497.23157Q-192.75333,920.8538,22.86499,1309.0642Q248.07526,1689.404,676.32733,1810.2915Q1102.0774,1918.7627,1489.186,1703.2704Q1869.1699,1479.1238,1990.949,1049.0574Q2099.3054,625.58716,1884.0503,237.17682"/>
</g>
<g style="fill:rgb(0,0,0); fill-opacity:1.0; stroke-linejoin: miter">
<path d="M1879.7335,761.47076Q1875.9205,1139.7773,1609.6321,1415.4702Q1335.7969,1682.5183,956.03674,1687.8469Q576.0742,1684.1768,301.58643,1419.4209Q33.288452,1147.0884,27.5271,762.2148Q31.26001,383.906,297.49915,108.151306Q571.29004,-158.95569,951.0498,-164.35449Q1331.0117,-160.75375,1605.5442,103.942505Q1873.891,376.21436,1879.7334,761.08417 M2027.5201,761.4267Q2022.2429,319.46014,1711.5608,0.9463501Q1396.8572,-305.56815,953.8666,-312.14386Q512.7147,-307.66223,192.44727,4.1996765Q-112.884766,317.073,-120.25903,761.0821Q-115.39111,1203.0713,195.04236,1521.8889Q509.5171,1828.7026,952.50916,1835.6353Q1393.6581,1831.5105,1714.1552,1519.9517Q2019.7297,1207.3938,2027.5183,763.393"/>
</g>
<g style="fill:rgb(0,0,0); fill-opacity:1.0; stroke-linejoin: miter">
<path d="M1761.6327,1215.2865Q1569.1775,1541.003,1200.7184,1646.616Q830.046,1740.9686,498.49976,1555.7034Q171.27771,1362.5436,65.94226,996.0144Q-30.244324,626.01843,157.20297,289.8275Q349.59018,-35.93106,718.0375,-141.62201Q1088.7007,-236.04799,1420.2819,-50.843613Q1747.5381,142.25569,1852.942,508.75565Q1949.2014,878.7234,1761.826,1214.9517 M1889.6418,1289.1416Q2106.0552,903.7488,1996.2534,472.5667Q1876.9691,49.765526,1496.6158,-177.42456Q1112.3264,-394.11932,679.03564,-284.17276Q258.17368,-165.88254,29.782867,214.95349Q-186.99603,600.1613,-77.561646,1031.4822Q41.374634,1454.4281,421.55066,1681.928Q805.6592,1898.9303,1238.9972,1789.361Q1659.9116,1671.4653,1888.6572,1290.8436"/>
</g>
<g style="fill:rgb(0,0,0); fill-opacity:1.0; stroke-linejoin: miter">
<path d="M1432.4471,1549.2522Q1102.9176,1735.1033,731.01624,1642.3373Q362.82837,1538.7131,168.3335,1212.4955Q-18.469238,881.6032,73.57214,511.5119Q175.2699,142.99268,505.69952,-54.433624Q835.19104,-240.35526,1207.1212,-147.66267Q1575.3381,-44.106384,1769.8936,282.07587Q1956.7561,612.9328,1864.7888,983.03314Q1763.1678,1351.5642,1432.782,1549.0588 M1506.3787,1677.2172Q1886.4944,1451.6637,2006.9944,1023.34814Q2115.0918,597.54956,1899.2913,210.62057Q1674.8341,-169.1874,1244.62,-290.61615Q820.9977,-398.60477,432.7874,-182.98642Q52.44751,42.223877,-68.43994,470.476Q-176.91089,896.226,38.5813,1283.3347Q262.72803,1663.3185,692.79443,1785.0977Q1116.2648,1893.4541,1504.675,1678.1987"/>
</g>
<g style="fill:rgb(0,0,0); fill-opacity:1.0; stroke-linejoin: miter">
<path d="M980.3808,1673.882Q602.0742,1670.069,326.38135,1403.7805Q59.333252,1129.9453,54.00464,750.1852Q57.674805,370.22266,322.43066,95.73486Q594.7632,-172.56311,979.6368,-178.32446Q1357.9456,-174.59155,1633.7002,91.64758Q1900.8073,365.43848,1906.206,745.19824Q1902.6053,1125.1602,1637.909,1399.6926Q1365.6372,1668.0394,980.7674,1673.8818 M980.42487,1821.6686Q1422.3914,1816.3914,1740.9053,1505.7092Q2047.4197,1191.0056,2053.9954,748.015Q2049.514,306.86316,1737.6519,-13.404297Q1424.7786,-318.73633,980.7695,-326.1106Q538.7803,-321.24268,219.96265,-10.809204Q-86.851074,303.66553,-93.78369,746.6576Q-89.658936,1187.8065,221.8999,1508.3036Q534.45776,1813.8782,978.45856,1821.6667"/>
</g>
<g style="fill:rgb(0,0,0); fill-opacity:1.0; stroke-linejoin: miter">
<path d="M515.2561,-13.252106Q844.78564,-199.10327,1216.687,-106.33716Q1584.875,-2.7129517,1779.3698,323.50464Q1966.1726,654.397,1874.1311,1024.4883Q1772.4332,1393.0073,1442.0037,1590.4336Q1112.5122,1776.3553,740.58203,1683.6626Q372.36514,1580.1064,177.80978,1253.9241Q-9.052826,923.0672,82.91458,552.96686Q184.53552,184.43582,514.9213,-13.058746 M441.3246,-141.2171Q61.208984,84.336395,-59.291016,512.65186Q-167.38852,938.45044,48.412056,1325.3794Q272.86914,1705.1874,703.08325,1826.6162Q1126.7054,1934.6049,1514.9158,1718.9866Q1895.2556,1493.7761,2016.1431,1065.524Q2124.6143,639.7742,1909.122,252.66553Q1684.9753,-127.31836,1254.9089,-249.09747Q831.43866,-357.45392,443.02838,-142.1987"/>
</g>
<g style="fill:rgb(0,0,0); fill-opacity:1.0; stroke-linejoin: miter">
<path d="M186.07013,320.71356Q378.5255,-5.0030518,746.9845,-110.61597Q1117.6569,-204.96875,1449.2031,-19.703491Q1776.4252,173.45618,1881.7607,539.98535Q1977.9473,909.9812,1790.5,1246.1724Q1598.1128,1571.9309,1229.6656,1677.622Q859.00226,1772.0479,527.4212,1586.8436Q200.16493,1393.7443,94.76088,1027.2444Q-1.4983826,657.2766,185.87689,321.0484 M58.061035,246.85834Q-158.35202,632.2512,-48.550285,1063.4333Q70.73384,1486.2345,451.08713,1713.4246Q835.37665,1930.1193,1268.6675,1820.1726Q1689.5294,1701.8823,1917.9202,1321.0464Q2134.699,935.8384,2025.2646,504.51758Q1906.3284,81.571655,1526.1522,-145.9281Q1142.0436,-362.93042,708.7056,-253.36096Q287.7913,-135.46533,59.045776,245.15643"/>
</g>
<g style="fill:rgb(0,0,0); fill-opacity:1.0; stroke-linejoin: miter">
<path d="M67.969635,774.52924Q71.78261,396.22266,338.07104,120.529785Q611.90625,-146.51831,991.6664,-151.84692Q1371.6289,-148.17676,1646.1167,116.5791Q1914.4147,388.91162,1920.176,773.7852Q1916.4431,1152.094,1650.204,1427.8486Q1376.4131,1694.9557,996.6533,1700.3545Q616.6914,1696.7538,342.1589,1432.0575Q73.8121,1159.7856,67.96971,774.91583 M-79.81705,774.5733Q-74.539825,1216.5398,236.14227,1535.0537Q550.84595,1841.5681,993.83655,1848.1438Q1434.9884,1843.6622,1755.2559,1531.8003Q2060.588,1218.927,2067.9622,774.9179Q2063.0942,332.9287,1752.6608,14.111084Q1438.186,-292.70264,995.194,-299.63525Q554.04504,-295.5105,233.548,16.04834Q-72.02661,328.6062,-79.81525,772.607"/>
</g>
<g style="fill:rgb(0,0,0); fill-opacity:1.0; stroke-linejoin: miter">
<path d="M192.5994,1226.5953Q6.74823,897.0658,99.51428,525.16455Q203.13843,156.97656,529.3561,-37.51831Q860.2484,-224.32104,1230.3397,-132.27966Q1598.8589,-30.58191,1796.2852,299.84772Q1982.2069,629.33923,1889.5142,1001.2694Q1785.9579,1369.4863,1459.7756,1564.0417Q1128.9187,1750.9043,758.8184,1658.9369Q390.28732,1557.316,192.79276,1226.9302 M64.63437,1300.5269Q290.18793,1680.6426,718.5034,1801.1425Q1144.302,1909.24,1531.231,1693.4395Q1911.039,1468.9823,2032.4678,1038.7682Q2140.4563,615.1459,1924.838,226.93561Q1699.6277,-153.4043,1271.3755,-274.29175Q845.6256,-382.7627,458.51697,-167.27051Q78.53308,56.87622,-43.246033,486.9425Q-151.60242,910.41296,63.6528,1298.8232"/>
</g>
<g style="fill:rgb(0,0,0); fill-opacity:1.0; stroke-linejoin: miter">
<path d="M526.56506,1555.7815Q200.84851,1363.3262,95.235596,994.86707Q0.8828125,624.1947,186.1482,292.64844Q379.30786,-34.57361,745.83704,-139.90906Q1115.8331,-236.09564,1452.0239,-48.648346Q1777.7826,143.73886,1883.4735,512.18616Q1977.8994,882.8495,1792.6951,1214.4305Q1599.5957,1541.6868,1233.0958,1647.0907Q863.12805,1743.35,526.8999,1555.9747 M452.70984,1683.7905Q838.1027,1900.2037,1269.2848,1790.402Q1692.0859,1671.1178,1919.2761,1290.7645Q2135.9707,906.47504,2026.0244,473.18433Q1907.7341,52.322357,1526.898,-176.06845Q1141.6901,-392.84735,710.3694,-283.41296Q287.42334,-164.47668,59.923584,215.69934Q-157.07886,599.80786,-47.5094,1033.1459Q70.38623,1454.0603,451.00793,1682.8059"/>
</g>
</g>
<g id="layer2">
<g style="fill:rgb(0,0,0); fill-opacity:1.0; stroke-linejoin: miter">
<path d="M932.5263,-501.09747L1106.0795,-497.983L1163.9429,-255.62427L853.91895,-264.3573L932.44836,-500.86334 M928.4688,-512.4768Q924.1271,-512.0201,923.0532,-508.45773L840.60223,-260.6787Q839.78735,-257.17914,841.8044,-255.10599Q843.7769,-253.25574,845.64764,-253.276L1171.4713,-244.1018Q1177.41,-245.05188,1176.9143,-250.81949L1115.9866,-505.1851Q1115.4099,-506.98587,1114.7147,-507.60864Q1113.0945,-509.47165,1110.2546,-509.50687L928.509,-512.4767"/>
</g>
<g style="fill:rgb(0,0,0); fill-opacity:1.0; stroke-linejoin: miter">
<path d="M1572.6116,-351.7333L1721.3558,-262.25946L1650.2876,-23.438965L1386.1655,-186.01398L1572.427,-351.56952 M1574.7874,-363.6168Q1570.799,-365.39215,1568.0879,-362.844L1372.7937,-189.48654Q1370.3381,-186.86328,1371.0483,-184.05936Q1371.8315,-181.47073,1373.4618,-180.55289L1651.0463,-9.695984Q1656.6643,-7.5494385,1659.1189,-12.792175L1733.5366,-263.5431Q1733.9377,-265.391,1733.647,-266.2779Q1733.1753,-268.70142,1730.7336,-270.15186L1574.8221,-363.5966"/>
</g>
<g style="fill:rgb(0,0,0); fill-opacity:1.0; stroke-linejoin: miter">
<path d="M2052.2598,97.66254L2136.339,249.52124L1955.3818,420.81177L1807.9331,147.95667L2052.018,97.7121 M2060.086,88.458984Q2057.5193,84.92731,2053.8975,85.77844L1798.0889,138.2633Q1794.6508,139.30743,1793.8638,142.09076Q1793.2478,144.72418,1794.2007,146.3341L1949.1675,433.09283Q1952.9596,437.76086,1957.7065,434.44775L2147.5298,254.5Q2148.801,253.10022,2148.9927,252.18677Q2149.7961,249.85205,2148.4065,247.37512L2060.1057,88.4939"/>
</g>
<g style="fill:rgb(0,0,0); fill-opacity:1.0; stroke-linejoin: miter">
<path d="M2242.9492,726.6748L2239.8347,900.22797L1997.4761,958.0914L2006.2091,648.06744L2242.715,726.59686 M2254.3286,722.6173Q2253.8718,718.2756,2250.3096,717.2017L2002.5305,634.75073Q1999.031,633.93585,1996.9578,635.9529Q1995.1075,637.9254,1995.1278,639.79614L1985.9536,965.6198Q1986.9037,971.55853,1992.6713,971.0628L2247.0369,910.1351Q2248.8376,909.5584,2249.4604,908.8632Q2251.3235,907.243,2251.3586,904.40314L2254.3286,722.6575"/>
</g>
<g style="fill:rgb(0,0,0); fill-opacity:1.0; stroke-linejoin: miter">
<path d="M2093.585,1366.7603L2004.1111,1515.5044L1765.2908,1444.4363L1927.8657,1180.3142L2093.4214,1366.5757 M2105.4685,1368.936Q2107.2437,1364.9475,2104.6958,1362.2363L1931.3383,1166.9421Q1928.7148,1164.4868,1925.911,1165.197Q1923.3224,1165.9801,1922.4047,1167.6104L1751.5477,1445.1948Q1749.4011,1450.813,1754.6438,1453.2675L2005.3948,1527.6853Q2007.2427,1528.0863,2008.1296,1527.7957Q2010.553,1527.324,2012.0034,1524.8822L2105.4482,1368.9707"/>
</g>
<g style="fill:rgb(0,0,0); fill-opacity:1.0; stroke-linejoin: miter">
<path d="M1644.1893,1846.4082L1492.3306,1930.4875L1321.04,1749.5305L1593.8951,1602.0815L1644.1396,1846.1665 M1653.3928,1854.2343Q1656.9244,1851.6678,1656.0735,1848.0459L1603.5884,1592.2374Q1602.5444,1588.7993,1599.761,1588.0123Q1597.1277,1587.3964,1595.5176,1588.3492L1308.759,1743.3159Q1304.0908,1747.1082,1307.4039,1751.8552L1487.3518,1941.6785Q1488.7515,1942.9495,1489.665,1943.1412Q1491.9998,1943.9446,1494.4766,1942.5552L1653.3579,1854.2543"/>
</g>
<g style="fill:rgb(0,0,0); fill-opacity:1.0; stroke-linejoin: miter">
<path d="M1015.17694,2037.0977L841.6238,2033.9833L783.7604,1791.6245L1093.7843,1800.3575L1015.2549,2036.8635 M1019.23444,2048.477Q1023.5762,2048.0203,1024.65,2044.458L1107.1011,1796.679Q1107.9159,1793.1794,1105.8989,1791.1062Q1103.9263,1789.256,1102.0557,1789.2762L776.23193,1780.102Q770.2932,1781.0521,770.78894,1786.8197L831.7167,2041.1853Q832.29333,2042.9861,832.9885,2043.6089Q834.60876,2045.4719,837.4486,2045.5071L1019.1943,2048.477"/>
</g>
<g style="fill:rgb(0,0,0); fill-opacity:1.0; stroke-linejoin: miter">
<path d="M303.51404,-310.40793L455.3727,-394.4873L626.66327,-213.53018L353.80817,-66.08124L303.56366,-310.1662 M294.3105,-318.23398Q290.7788,-315.66757,291.62997,-312.04556L344.1148,-56.237152Q345.15894,-52.79898,347.94232,-52.012115Q350.57568,-51.395996,352.18567,-52.348907L638.94434,-207.31567Q643.61237,-211.10779,640.29926,-215.85486L460.3515,-405.67804Q458.95172,-406.94922,458.03827,-407.14096Q455.70358,-407.94427,453.22662,-406.55484L294.34534,-318.25394"/>
</g>
<g style="fill:rgb(0,0,0); fill-opacity:1.0; stroke-linejoin: miter">
<path d="M-145.8819,169.24017L-56.408142,20.495972L182.41241,91.56409L19.837433,355.68622L-145.71811,169.42474 M-157.76544,167.06433Q-159.54074,171.0528,-156.99258,173.76392L16.364838,369.0581Q18.988129,371.51355,21.792023,370.8034Q24.380676,370.02026,25.298462,368.39008L196.15536,90.80548Q198.30194,85.18744,193.05917,82.73285L-57.691772,8.315063Q-59.53961,7.9140625,-60.426514,8.204712Q-62.850098,8.676392,-64.300476,11.118164L-157.74524,167.02966"/>
</g>
<g style="fill:rgb(0,0,0); fill-opacity:1.0; stroke-linejoin: miter">
<path d="M-295.24597,809.3255L-292.1315,635.77234L-49.772766,577.90894L-58.5058,887.93286L-295.01184,809.40344 M-306.6253,813.383Q-306.16858,817.72473,-302.60623,818.7986L-54.82721,901.2496Q-51.327637,902.06445,-49.254486,900.0474Q-47.404236,898.0749,-47.4245,896.20416L-38.250305,570.3805Q-39.20038,564.4418,-44.967987,564.9375L-299.3336,625.86523Q-301.13437,626.4419,-301.75714,627.1371Q-303.62015,628.7573,-303.65536,631.59717L-306.62518,813.34283"/>
</g>
<g style="fill:rgb(0,0,0); fill-opacity:1.0; stroke-linejoin: miter">
<path d="M-104.55649,1438.3378L-188.63586,1286.4792L-7.678772,1115.1885L139.7702,1388.0436L-104.31476,1438.2883 M-112.38254,1447.5413Q-109.81613,1451.0731,-106.19412,1450.2219L149.61429,1397.737Q153.05243,1396.6929,153.83932,1393.9097Q154.45547,1391.2761,153.50253,1389.6663L-1.4642334,1102.9075Q-5.2563477,1098.2395,-10.003418,1101.5526L-199.8266,1281.5005Q-201.09778,1282.9001,-201.28952,1283.8135Q-202.09283,1286.1484,-200.7034,1288.6252L-112.4025,1447.5066"/>
</g>
<g style="fill:rgb(0,0,0); fill-opacity:1.0; stroke-linejoin: miter">
<path d="M375.09167,1887.7336L226.34735,1798.2598L297.4156,1559.4395L561.5376,1722.0144L375.27606,1887.5697 M372.91583,1899.6171Q376.90417,1901.3925,379.61542,1898.8445L574.9096,1725.4869Q577.36505,1722.8635,576.65485,1720.0597Q575.87164,1717.4711,574.2414,1716.5533L296.65698,1545.6964Q291.03882,1543.5498,288.58435,1548.7925L214.16656,1799.5435Q213.76556,1801.3911,214.05621,1802.2783Q214.5279,1804.7017,216.96967,1806.1521L372.88104,1899.597"/>
</g>
<g style="fill:rgb(0,0,0); fill-opacity:1.0; stroke-linejoin: miter">
<path d="M932.5263,-501.09747L1106.0795,-497.983L1163.9429,-255.62427L1163.9429,-255.62427L853.91895,-264.3573L932.44836,-500.86334L932.5263,-501.09747 Z"/>
</g>
<g style="fill:rgb(0,0,0); fill-opacity:1.0; stroke-linejoin: miter">
<path d="M1572.6116,-351.7333L1721.3558,-262.25946L1650.2876,-23.438965L1386.1655,-186.01398L1572.427,-351.56952L1572.6116,-351.7333 Z"/>
</g>
<g style="fill:rgb(0,0,0); fill-opacity:1.0; stroke-linejoin: miter">
<path d="M2052.2598,97.66254L2136.339,249.52124L1955.3818,420.81177L1807.9331,147.95667L2052.018,97.7121L2052.2598,97.66254 Z"/>
</g>
<g style="fill:rgb(0,0,0); fill-opacity:1.0; stroke-linejoin: miter">
<path d="M2006.2091,648.06744L2242.715,726.59686L2242.9492,726.6748L2239.8347,900.22797L1997.4761,958.0914L2006.2091,648.06744 Z"/>
</g>
<g style="fill:rgb(0,0,0); fill-opacity:1.0; stroke-linejoin: miter">
<path d="M1927.8657,1180.3142L2093.4214,1366.5757L2093.585,1366.7603L2004.1111,1515.5044L1765.2908,1444.4363L1927.8657,1180.3142 Z"/>
</g>
<g style="fill:rgb(0,0,0); fill-opacity:1.0; stroke-linejoin: miter">
<path d="M1593.8951,1602.0815L1644.1396,1846.1665L1644.1893,1846.4082L1492.3306,1930.4875L1321.04,1749.5305L1593.8951,1602.0815 Z"/>
</g>
<g style="fill:rgb(0,0,0); fill-opacity:1.0; stroke-linejoin: miter">
<path d="M783.7604,1791.6245L1093.7843,1800.3575L1015.2549,2036.8635L1015.17694,2037.0977L841.6238,2033.9833L783.7604,1791.6245 Z"/>
</g>
<g style="fill:rgb(0,0,0); fill-opacity:1.0; stroke-linejoin: miter">
<path d="M297.4156,1559.4395L561.5376,1722.0144L375.27606,1887.5697L375.09167,1887.7336L226.34735,1798.2598L297.4156,1559.4395 Z"/>
</g>
<g style="fill:rgb(0,0,0); fill-opacity:1.0; stroke-linejoin: miter">
<path d="M-7.678772,1115.1885L139.7702,1388.0436L-104.31476,1438.2883L-104.55649,1438.3378L-188.63586,1286.4792L-7.678772,1115.1885 Z"/>
</g>
<g style="fill:rgb(0,0,0); fill-opacity:1.0; stroke-linejoin: miter">
<path d="M-49.772766,577.90894L-58.5058,887.93286L-295.01184,809.40344L-295.24597,809.3255L-292.1315,635.77234L-49.772766,577.90894 Z"/>
</g>
<g style="fill:rgb(0,0,0); fill-opacity:1.0; stroke-linejoin: miter">
<path d="M-56.408142,20.495972L182.41241,91.56409L19.837433,355.68622L-145.71811,169.42474L-145.8819,169.24017L-56.408142,20.495972 Z"/>
</g>
<g style="fill:rgb(0,0,0); fill-opacity:1.0; stroke-linejoin: miter">
<path d="M455.3727,-394.4873L626.66327,-213.53018L353.80817,-66.08124L303.56366,-310.1662L303.51404,-310.40793L455.3727,-394.4873 Z"/>
</g>
</g>
<g id="layer3">
</g>
</svg>